<svg width="154" height="88" viewBox="0 0 154 88" fill="none" xmlns="http://www.w3.org/2000/svg">
    <path d="M68.12 66.48C70.0933 65.6 71.96 65.16 73.72 65.16C76.0133 65.16 77.1867 66.5067 77.24 69.2H73C70.84 69.2 69.0933 69.7333 67.76 70.8C66.4533 71.8667 65.8 73.3733 65.8 75.32C65.8 77.1867 66.3733 78.68 67.52 79.8C68.6933 80.92 70.4 81.48 72.64 81.48C73.6 81.48 74.56 81.2533 75.52 80.8C76.48 80.3467 77.3333 79.76 78.08 79.04L78.76 81H81.76V68.04C81.76 66.7333 81.4 65.56 80.68 64.52C79.96 63.4533 78.9733 62.6133 77.72 62C76.4933 61.3867 75.1333 61.08 73.64 61.08C72.7333 61.08 71.5467 61.2533 70.08 61.6C68.64 61.9467 67.5733 62.3467 66.88 62.8L68.12 66.48ZM69.72 75.32C69.72 74.44 70 73.7067 70.56 73.12C71.1467 72.5067 71.9333 72.2 72.92 72.2H77.28V75.68C76.6133 76.3733 75.8667 76.92 75.04 77.32C74.2133 77.72 73.3867 77.92 72.56 77.92C71.68 77.92 70.9867 77.6667 70.48 77.16C69.9733 76.6267 69.72 76.0133 69.72 75.32ZM90.7219 68.64C91.7885 67.68 92.9619 66.8667 94.2419 66.2C95.5219 65.5333 96.6419 65.2 97.6019 65.2L96.6819 61.6C95.7485 61.6 94.6552 61.9333 93.4019 62.6C92.1752 63.2667 91.0819 64 90.1219 64.8L88.6419 61.6H86.2419V81H90.7219V68.64ZM108.984 61.08C110.958 61.08 112.678 61.5067 114.144 62.36C115.611 63.1867 116.731 64.3733 117.504 65.92C118.304 67.4667 118.704 69.28 118.704 71.36C118.704 73.36 118.304 75.1333 117.504 76.68C116.704 78.2 115.558 79.3867 114.064 80.24C112.598 81.0933 110.878 81.52 108.904 81.52C108.184 81.52 107.371 81.36 106.464 81.04C105.584 80.72 104.758 80.2933 103.984 79.76L103.064 81H100.704V53.2L105.184 52.76V62.12C106.491 61.4267 107.758 61.08 108.984 61.08ZM108.904 77.64C110.504 77.64 111.758 77.0533 112.664 75.88C113.598 74.7067 114.064 73.2 114.064 71.36C114.064 69.44 113.611 67.8933 112.704 66.72C111.798 65.52 110.531 64.92 108.904 64.92C108.211 64.92 107.558 65.0267 106.944 65.24C106.358 65.4533 105.771 65.7733 105.184 66.2V76.44C106.278 77.24 107.518 77.64 108.904 77.64ZM139.061 71.16C139.061 68.2267 138.328 65.8133 136.861 63.92C135.395 62.0267 133.235 61.08 130.381 61.08C128.435 61.08 126.741 61.5067 125.301 62.36C123.888 63.2133 122.795 64.4133 122.021 65.96C121.275 67.48 120.901 69.2533 120.901 71.28C120.901 74.4267 121.821 76.92 123.661 78.76C125.528 80.5733 128.221 81.48 131.741 81.48C134.355 81.48 136.741 80.7333 138.901 79.24L137.541 75.96C136.395 76.5467 135.408 76.9867 134.581 77.28C133.781 77.5467 132.861 77.68 131.821 77.68C128.088 77.68 126.021 75.9467 125.621 72.48H139.061V71.16ZM125.701 69.48C125.888 68.04 126.368 66.92 127.141 66.12C127.941 65.32 128.981 64.92 130.261 64.92C131.515 64.92 132.515 65.3067 133.261 66.08C134.008 66.8533 134.501 67.9867 134.741 69.48H125.701ZM146.933 68.64C147.999 67.68 149.173 66.8667 150.453 66.2C151.733 65.5333 152.853 65.2 153.813 65.2L152.893 61.6C151.959 61.6 150.866 61.9333 149.613 62.6C148.386 63.2667 147.293 64 146.333 64.8L144.853 61.6H142.453V81H146.933V68.64Z" fill="#99BAED"/>
    <path d="M42.5803 0.775839C36.6236 1.29699 32.0962 6.55708 32.6169 12.5145L35.2968 43.1482L25.162 47.8735C21.7678 41.9757 14.3668 39.5552 8.08457 42.485C1.45122 45.5794 -1.41826 53.4628 1.67428 60.0971C4.76801 66.7299 12.6523 69.6013 19.2873 66.5076C23.8398 64.3846 26.6184 60.0039 26.9143 55.3216L39.3265 49.5333L40.5196 63.1754C36.6133 65.7733 34.209 70.3698 34.6457 75.3736C35.2841 82.6662 41.7121 88.0582 49.003 87.4212C56.2956 86.7827 61.6885 80.3552 61.0511 73.0643C60.447 66.1594 54.6501 60.9605 47.8458 60.969L46.8707 49.8294L74.7388 36.8338C80.1593 34.3065 82.4502 27.7552 79.9231 22.3359L45.8559 38.2238L42.5803 0.775839ZM19.6756 57.9207C17.7785 61.2067 13.5764 62.3326 10.2905 60.4355C7.00455 58.5383 5.87869 54.3362 7.77576 51.0503C9.67333 47.7636 13.8749 46.6385 17.1609 48.5356C20.4468 50.4327 21.5732 54.634 19.6756 57.9207ZM53.7886 77.6158C51.8914 80.9018 47.6894 82.0277 44.4034 80.1306C41.1175 78.2334 39.9916 74.0314 41.8887 70.7455C43.7863 67.4588 47.9879 66.3336 51.2738 68.2307C54.5597 70.1278 55.6861 74.3291 53.7886 77.6158Z" fill="#99BAED"/>
    </svg>
    